# xmcd
#
# Track frame offsets: 
#        150
#        12510
#        22347
#        37340
#        57085
#        65835
#        85215
#        97062
#        110317
#        125395
#
# Disc length: 1877 seconds
#
# Revision: 4
# Processed by: cddbd v1.5.2PL0 Copyright (c) Steve Scherf et al.
# Submitted via: ExactAudioCopy v0.95b3
#
DISCID=8f07530a
DTITLE=Various Artist - Texas Super Hits (Remaster)
DYEAR=1900
DGENRE=Country
TTITLE0=Gene Autry - Deep In The Heart Of Texas
TTITLE1=Sonny James - Abilene
TTITLE2=Asleep At The Wheel - Boogie Back To Texas
TTITLE3=Marty Robbins - El Paso
TTITLE4=Merle Haggard - Texas
TTITLE5=Rick Trevino - San Antonio Rose To You
TTITLE6=George Jones - Pretty Little Lady From Beaumont Texas
TTITLE7=Ricky Van Shelton - Heatache Big As Texas
TTITLE8=Johnny Cash - Rokabilly Blues (Texas 1955)
TTITLE9=Willie Nelson - No Place But Texas
EXTD=
EXTT0=Gene Autry\n
EXTT1=Sonny James\n
EXTT2=Asleep At The Wheel\n
EXTT3=Marty Robbins\n
EXTT4=Merle Haggard\n
EXTT5=Rick Trevino\n
EXTT6=George Jones\n
EXTT7=Ricky Van Shelton\n
EXTT8=Johnny Cash\n
EXTT9=Willie Nelson\n
PLAYORDER=
